<svg xmlns="http://www.w3.org/2000/svg" aria-hidden="true" style="position:absolute;width:0;height:0;overflow:hidden"><defs><symbol id="icon-twitter" viewBox="0 0 32 32"><path fill="#afb1b8" d="M32 6.078c-1.19.522-2.458.868-3.78 1.036a6.523 6.523 0 0 0 2.886-3.626 13.11 13.11 0 0 1-4.16 1.588A6.574 6.574 0 0 0 22.154 3c-3.632 0-6.556 2.948-6.556 6.562 0 .52.044 1.02.152 1.496-5.454-.266-10.28-2.88-13.522-6.862a6.605 6.605 0 0 0-.898 3.316 6.57 6.57 0 0 0 2.914 5.452 6.479 6.479 0 0 1-2.964-.808v.072c0 3.188 2.274 5.836 5.256 6.446a6.548 6.548 0 0 1-1.72.216 5.8 5.8 0 0 1-1.242-.112c.85 2.598 3.262 4.508 6.13 4.57a13.182 13.182 0 0 1-8.134 2.798c-.538 0-1.054-.024-1.57-.09A18.469 18.469 0 0 0 10.064 29c12.072 0 18.672-10 18.672-18.668 0-.29-.01-.57-.024-.848A13.087 13.087 0 0 0 32 6.078z" style="fill:var(--color1, #afb1b8)"/></symbol><symbol id="icon-yelp" viewBox="0 0 32 32"><path d="M19.027 20.421c-.54.545-.083 1.535-.083 1.535l4.065 6.788s.668.895 1.246.895c.581 0 1.155-.477 1.155-.477l3.214-4.594s.324-.58.331-1.087c.012-.722-1.077-.92-1.077-.92l-7.609-2.444s-.746-.198-1.242.303zM18.642 17c.389.66 1.463.468 1.463.468l7.592-2.219s1.035-.421 1.182-.982c.145-.561-.171-1.238-.171-1.238L25.08 8.755s-.314-.54-.967-.595c-.719-.061-1.162.809-1.162.809l-4.29 6.75s-.379.672-.02 1.28zm-3.587-2.632c.894-.22 1.036-1.519 1.036-1.519L16.03 2.041S15.895.708 15.296.346c-.94-.57-1.218-.272-1.487-.233L7.506 2.455s-.617.204-.939.719c-.459.73.466 1.798.466 1.798l6.551 8.93s.647.669 1.47.465zm-1.557 4.374c.023-.834-1.001-1.334-1.001-1.334l-6.775-3.423s-1.004-.414-1.491-.126c-.373.221-.704.62-.737.973l-.441 5.432s-.066.941.178 1.369c.345.608 1.482.184 1.482.184l7.909-1.748c.307-.207.846-.225.876-1.328zm1.967 2.931c-.679-.349-1.491.373-1.491.373l-5.296 5.83s-.661.892-.493 1.439c.158.513.42.768.791.948l5.319 1.679s.645.134 1.133-.008c.693-.201.565-1.286.565-1.286l.12-7.894s-.027-.76-.648-1.082z"/></symbol></defs></svg>